<?xml version="1.0" encoding="UTF-8"?>
<svg width="100%" height="100%" viewBox="0 0 79 24" version="1.1" xmlns="http://www.w3.org/2000/svg" xmlns:xlink="http://www.w3.org/1999/xlink">
    <!-- Generator: Sketch 55.2 (78181) - https://sketchapp.com -->
    <title>sgunited-logo</title>
    <desc>Created with Sketch.</desc>
    <g id="Page-1" stroke="none" stroke-width="1" fill="none" fill-rule="evenodd">
        <g id="Artboard" transform="translate(-22934.000000, -10245.000000)" fill="#FFFFFF" fill-rule="nonzero">
            <g id="sgunited-logo" transform="translate(22934.000000, 10245.000000)">
                <path d="M11.9994427,21.95538 C6.45347583,21.8840169 2.00993277,17.3403763 2.06211202,11.7941958 C2.11429128,6.24801528 6.64253466,1.78878247 12.1888625,1.8215954 C17.7351903,1.85477218 22.2100595,6.3675641 22.1962813,11.9139729 C22.1506521,17.5014645 17.5869757,21.9955903 11.9994427,21.95538 M12.0434726,0 C5.40531768,0 0.0129499705,5.29912793 -2.33656982e-05,11.864763 C-0.0129499705,18.430398 5.35869779,23.7631959 11.9968527,23.7787698 C18.6350075,23.7942758 24.0247853,18.4770179 24.0377586,11.9139729 C24.0506852,5.35092781 18.6790374,0.0129499705 12.0434726,0" id="Shape"></path>
                <path d="M20.5127533,11.2638843 L16.1719232,11.2638843 C16.0946191,11.2557562 16.0177517,11.2827773 15.9625378,11.3374892 C15.9073239,11.3922012 15.8796019,11.4688187 15.8870238,11.5461937 L15.8870238,12.6443512 C15.8866557,12.7177744 15.9174687,12.7879034 15.9717981,12.8372938 C16.0261275,12.8866842 16.0988672,12.9106939 16.1719232,12.9033506 L18.9872467,12.9033506 C18.6220576,14.2449675 17.5860599,15.0219658 16.1123533,15.0219658 C14.4573471,15.0219658 13.2633598,13.7269687 13.2633598,11.8984329 C13.2633598,10.0698971 14.4573471,8.79043997 16.1123533,8.79043997 C17.0040144,8.7636002 17.8626205,9.12900478 18.4614779,9.79017769 C18.5074902,9.85107738 18.5793999,9.88687335 18.6557275,9.88687335 C18.7320551,9.88687335 18.8039648,9.85107738 18.8499771,9.79017769 L19.6269753,8.94583962 C19.7309388,8.83921426 19.7309388,8.66914585 19.6269753,8.56252049 C18.7147032,7.62334403 17.4495452,7.11107724 16.1408432,7.15097371 C13.4524293,7.15097371 11.5099338,9.13490919 11.5047435,11.8984329 C11.4995738,14.6619566 13.4472494,16.6458921 16.1097633,16.6510721 C18.8240771,16.6510721 20.7924726,14.6412366 20.7976526,11.9295128 L20.7976526,11.5461937 C20.8050745,11.4688187 20.7773526,11.3922012 20.7221386,11.3374892 C20.6669247,11.2827773 20.5900573,11.2557562 20.5127533,11.2638843" id="Path"></path>
                <path d="M4.54025966,13.5353092 L3.71146154,14.4288571 C3.66165375,14.4749371 3.63333625,14.5397126 3.63333625,14.6075667 C3.63333625,14.6754208 3.66165375,14.7401964 3.71146154,14.7862763 C4.79407908,16.0657334 5.98288637,16.6329421 7.53170284,16.6355321 C9.60369812,16.6355321 11.0230149,15.5684545 11.0281949,13.9574782 C11.0281949,12.6029113 10.3081765,11.7818832 8.80856993,11.3674841 L7.15615369,10.9038752 C6.12015606,10.6215658 5.71093699,10.2615566 5.71093699,9.75132778 C5.71093699,9.11159924 6.38433545,8.67907022 7.44364304,8.68166022 C8.22064127,8.68166022 8.8655498,9.01576946 9.45865845,9.655498 C9.49691908,9.72723668 9.57160416,9.77204773 9.65290801,9.77204773 C9.73421185,9.77204773 9.80889693,9.72723668 9.84715756,9.655498 L10.6500557,8.83705986 C10.7540193,8.7304345 10.7540193,8.5603661 10.6500557,8.45374074 C9.82927602,7.56252896 8.65958161,7.07515628 7.44882303,7.11989378 C5.45711757,7.11989378 4.03262081,8.21028129 4.03003082,9.77204773 C4.03003082,10.9479051 4.90544882,11.9191528 6.37915547,12.3309619 L7.93315192,12.7686709 C8.91475969,13.0535703 9.30066881,13.3850895 9.30066881,13.9471182 C9.30066881,14.5868468 8.67907022,14.9960658 7.64566258,14.9831159 C6.55454171,15.0041364 5.52776325,14.4682986 4.92098879,13.5612091 C4.87564958,13.5020174 4.80700028,13.4652366 4.73260471,13.4602769 C4.65820915,13.4553172 4.58528495,13.4826598 4.53248967,13.5353092" id="Path"></path>
                <path d="M71.4838371,14.6878565 L71.4838371,8.96914956 L73.0922235,8.96914956 C74.8819094,8.96914956 76.1510065,10.1579569 76.1510065,11.8181431 C76.1510065,13.4783293 74.8819094,14.6826765 73.0922235,14.6826765 L71.4838371,14.6878565 Z M69.4765917,16.5163924 L72.843584,16.5163924 C75.9981968,16.5163924 78.2359517,14.5661268 78.2359517,11.8233231 C78.2359517,9.08051931 75.9981968,7.14061373 72.843584,7.14061373 L69.4765917,7.14061373 L69.4765917,16.5163924 Z" id="Shape"></path>
                <polygon id="Path" points="67.8707954 8.95619959 67.8707954 7.14061373 60.6524818 7.14061373 60.6524818 16.5163924 67.8707954 16.5163924 67.8707954 14.7033965 62.6726772 14.7033965 62.6726772 12.6417612 67.3812865 12.6417612 67.3812865 10.8261753 62.6726772 10.8261753 62.6726772 8.95619959"></polygon>
                <rect id="Rectangle" x="48.0780605" y="7.14061373" width="2.0201954" height="9.37577864"></rect>
                <polygon id="Path" points="37.7025441 16.5163924 39.7097895 16.5163924 39.7097895 10.4583962 44.2267392 16.5163924 46.2469346 16.5163924 46.2469346 7.14061373 44.2267392 7.14061373 44.2267392 13.2011999 39.7097895 7.14061373 37.7025441 7.14061373"></polygon>
                <polygon id="Path" points="54.3354862 16.5163924 56.3556816 16.5163924 56.3556816 8.95619959 59.2771949 8.95619959 59.2771949 7.14061373 51.4165628 7.14061373 51.4165628 8.95619959 54.3354862 8.95619959"></polygon>
                <path d="M31.6264179,16.682152 C34.1102223,16.682152 35.8714183,14.933906 35.8714183,12.4630516 L35.8714183,7.14061373 L33.8512229,7.14061373 L33.8512229,12.3827618 C33.8512229,13.8279785 32.924005,14.8536162 31.6264179,14.8536162 C30.3288309,14.8536162 29.388663,13.8176185 29.388663,12.3827618 L29.388663,7.14061373 L27.3814176,7.14061373 L27.3814176,12.4630516 C27.3814176,14.933906 29.1296636,16.682152 31.6264179,16.682152 Z" id="Path"></path>
            </g>
        </g>
    </g>
</svg>
