<svg width="83" height="73" viewBox="0 0 83 73" fill="none" xmlns="http://www.w3.org/2000/svg">
<g clip-path="url(#clip0)">
<path d="M79.2006 24.3411V24.2793C77.2305 19.9547 69.6828 17.15 62.8386 12.8748C61.6488 12.1458 60.0625 12.4794 59.3078 13.6409L59.295 13.6533C58.6169 14.8271 58.9623 16.2974 60.1009 17.0758C60.216 17.1623 61.9431 18.4473 63.8364 19.7694C64.6296 20.3254 64.2202 21.5363 63.2479 21.5239L54.9966 21.4992C55.4827 22.0182 55.8281 22.673 55.9304 23.4144C55.9944 24.0075 55.9049 24.5758 55.6874 25.0824C55.4955 25.5272 55.8409 26.0215 56.3398 26.0215L58.86 26.0338C59.3717 26.0338 59.7939 26.4416 59.7939 26.9358C59.7939 27.43 59.3717 27.8378 58.86 27.8378L50.3783 27.8131C50.8517 28.332 51.1971 28.9869 51.2994 29.7282C51.3634 30.3213 51.2738 30.8897 51.0564 31.3963C50.8645 31.8411 51.2099 32.3353 51.7088 32.3353L58.8472 32.3477C59.3589 32.3477 59.7811 32.7554 59.7811 33.2496C59.7811 33.7439 59.3589 34.1516 58.8472 34.1516L45.4275 34.1145C44.1994 34.0898 43.1376 34.9547 42.9585 36.1285C42.8178 37.3641 43.7516 38.4762 45.0309 38.6121C45.1077 38.6244 45.1972 38.6244 45.274 38.6244L58.8216 38.6615C59.3333 38.6615 59.7555 39.0692 59.7555 39.5635C59.7555 40.0577 59.3333 40.4654 58.8216 40.4654L50.0713 40.4407C48.8432 40.416 47.7814 41.2809 47.6023 42.4547C47.4616 43.6903 48.3955 44.8024 49.6747 44.9383C49.7515 44.9506 49.841 44.9506 49.9178 44.9506L67.6103 45C72.2157 45.0124 76.335 43.4679 78.3307 41.0956C78.6122 40.762 79.0087 40.5396 79.4437 40.5396H81.5929C82.3605 40.5396 82.9745 39.9465 82.9745 39.2052V36.4745V36.215V25.5767C82.9745 24.8847 82.3988 24.3287 81.6824 24.3287H79.2006V24.3411Z" fill="#357D7D"/>
<path d="M74.7357 31.4827C74.7357 31.977 74.3136 32.3847 73.8019 32.3847C68.6463 32.3724 64.4759 27.8995 64.4887 22.4259C64.4887 21.9317 64.9108 21.5239 65.4226 21.5239C65.9343 21.5239 66.3564 21.9317 66.3564 22.4259C66.3436 26.9111 69.6826 30.5561 73.8147 30.5684C74.3264 30.5684 74.7357 30.9762 74.7357 31.4827Z" fill="#305367"/>
<path d="M0.562885 22.1664H1.76541C2.07244 22.1664 2.3283 21.9192 2.3283 21.6227V20.4613C2.3283 20.1647 2.07244 19.9176 1.76541 19.9176H0.562885C0.255857 19.9176 0 20.1647 0 20.4613V21.6227C0 21.9192 0.255857 22.1664 0.562885 22.1664Z" fill="#305367"/>
<path d="M53.2568 15.2348L38.8264 15.2718C38.3147 15.2718 37.8926 14.8764 37.8926 14.3699C37.8926 13.8756 38.3019 13.4679 38.8264 13.4679L49.3933 13.4432C49.4061 13.4432 49.4189 13.4432 49.4317 13.4432C50.6342 13.4432 51.6704 12.5783 51.824 11.4168C51.8368 11.3427 51.8368 11.2685 51.8368 11.182C51.8368 9.94646 50.7877 8.94563 49.5085 8.94563L33.0824 9.00741C32.5323 9.00741 32.3021 8.32784 32.7626 8.01894C35.0142 6.48682 37.4576 4.68287 37.5983 4.57166C38.7241 3.8056 39.0823 2.33526 38.4043 1.16145L38.3915 1.14909C37.9053 0.407743 37.0738 0 36.2295 0C35.7561 0 35.2956 0.123558 34.8606 0.383031C28.0421 4.63344 20.5327 7.42586 18.5626 11.7381V11.7998H15.3516C15.0445 11.7998 14.7887 12.047 14.7887 12.3435V15.2718C14.7887 15.5684 15.0445 15.8155 15.3516 15.8155H18.1276C18.4346 15.8155 18.6777 16.0502 18.6905 16.3468L18.7672 19.3122C18.78 19.6211 18.5242 19.8682 18.2044 19.8682H15.3516C15.0445 19.8682 14.7887 20.1153 14.7887 20.4119V23.3402C14.7887 23.6367 14.5328 23.8839 14.2258 23.8839H11.2067C10.8996 23.8839 10.6438 23.6367 10.6438 23.3402V20.4119C10.6438 20.1153 10.3879 19.8682 10.0809 19.8682H7.06178C6.75476 19.8682 6.4989 19.6211 6.4989 19.3245V16.3097C6.4989 16.0132 6.75476 15.7661 7.06178 15.7661H10.0425C10.3495 15.7661 10.6054 15.5189 10.6054 15.2224V12.2941C10.6054 11.9975 10.3495 11.7504 10.0425 11.7504H6.99782C6.69079 11.7504 6.43493 11.9975 6.43493 12.2941V15.21C6.43493 15.5066 6.17908 15.7537 5.87205 15.7537H2.89132C2.58429 15.7537 2.32843 16.0008 2.32843 16.2974V19.3493C2.32843 19.6458 2.58429 19.8929 2.89132 19.8929H5.91043C6.21746 19.8929 6.47331 20.14 6.47331 20.4366V23.3526C6.47331 23.6491 6.72917 23.8962 7.0362 23.8962H10.0553C10.3623 23.8962 10.6182 24.1433 10.6182 24.4399V27.3929C10.6182 27.6895 10.8741 27.9366 11.1811 27.9366H14.7759H18.7033C18.8824 27.9366 19.0487 28.0231 19.151 28.159C21.0188 30.6919 25.2532 32.3723 30.0249 32.3723C30.0377 32.3723 30.0633 32.3723 30.0761 32.3723L47.7047 32.3229C47.7814 32.3229 47.871 32.3229 47.9477 32.3105C47.9605 32.3105 47.9733 32.2982 47.9861 32.2982C49.2398 32.1499 50.1481 31.0502 50.0202 29.827C49.8539 28.6779 48.8304 27.813 47.6279 27.813C47.6023 27.813 47.5895 27.813 47.5639 27.813L43.8412 27.8254L38.852 27.8377C38.3403 27.8377 37.9181 27.4423 37.9181 26.9357C37.9181 26.4415 38.3275 26.0338 38.852 26.0338L52.3485 25.9967C52.4252 25.9967 52.5148 25.9967 52.5915 25.9843C52.6043 25.9843 52.6171 25.972 52.6299 25.972C53.8836 25.8237 54.7919 24.7241 54.6512 23.5132C54.4849 22.3641 53.4614 21.4992 52.2589 21.4992C52.2333 21.4992 52.2205 21.4992 52.195 21.4992L47.5767 21.5115L38.8264 21.5362C38.3147 21.5362 37.8926 21.1409 37.8926 20.6343C37.8926 20.14 38.3019 19.7323 38.8264 19.7323L53.116 19.6952C53.1288 19.6952 53.1416 19.6952 53.1544 19.6952C54.3569 19.6952 55.3932 18.8303 55.5467 17.6689C55.5595 17.5947 55.5595 17.5206 55.5595 17.4341C55.5851 16.2479 54.5488 15.2348 53.2568 15.2348Z" fill="#305367"/>
<path d="M4.57982 26.1575H5.78235C6.08938 26.1575 6.34524 25.9104 6.34524 25.6139V24.4524C6.34524 24.1559 6.08938 23.9088 5.78235 23.9088H4.57982C4.2728 23.9088 4.01694 24.1559 4.01694 24.4524V25.6139C4.00415 25.9104 4.26 26.1575 4.57982 26.1575Z" fill="#305367"/>
</g>
<path d="M6.71875 68.1562C8.63281 68.1562 10.3125 67.0625 10.3125 64.9141C10.3125 62.8047 8.6875 62.0703 7.14062 61.4297C5.72656 60.8359 4.375 60.2969 4.375 58.8438C4.375 57.5234 5.46094 56.8438 6.625 56.8438C7.61719 56.8438 8.36719 57.1406 9.28906 58.1172L9.98438 57.4141C9.15625 56.4844 8.08594 55.8438 6.60156 55.8438C4.82031 55.8438 3.32031 56.9688 3.32031 58.9141C3.32031 60.9141 4.89062 61.6172 6.52344 62.3047C7.92188 62.8984 9.26562 63.4766 9.26562 64.9453C9.26562 66.3203 8.11719 67.1562 6.64844 67.1562C5.33594 67.1562 4.30469 66.5156 3.50781 65.5L2.71875 66.2891C3.625 67.3672 5.08594 68.1562 6.71875 68.1562ZM15.2231 68.1562C17.1138 68.1562 18.4653 67.0938 18.4653 65.25V59.7266H17.4731V65.2266C17.4731 66.5391 16.5044 67.1719 15.2231 67.1719C13.9575 67.1719 12.9731 66.5391 12.9731 65.2266V59.7266H11.9809V65.25C11.9809 67.1016 13.3403 68.1562 15.2231 68.1562ZM20.665 71.8906H21.6806V66.3516C22.3759 67.4375 23.6103 68.1562 25.1025 68.1562C27.3681 68.1562 29.29 66.2344 29.29 63.8594C29.29 61.4922 27.3681 59.5703 25.1025 59.5703C23.6103 59.5703 22.3759 60.2891 21.6806 61.375V59.7266H20.665V71.8906ZM24.9775 67.1719C23.1416 67.1719 21.6806 65.6953 21.6806 63.8594C21.6806 62.0391 23.1494 60.5625 24.9775 60.5625C26.7978 60.5625 28.2744 62.0391 28.2744 63.8594C28.2744 65.6875 26.7978 67.1719 24.9775 67.1719ZM30.9819 71.8906H31.9975V66.3516C32.6928 67.4375 33.9272 68.1562 35.4194 68.1562C37.685 68.1562 39.6069 66.2344 39.6069 63.8594C39.6069 61.4922 37.685 59.5703 35.4194 59.5703C33.9272 59.5703 32.6928 60.2891 31.9975 61.375V59.7266H30.9819V71.8906ZM35.2944 67.1719C33.4584 67.1719 31.9975 65.6953 31.9975 63.8594C31.9975 62.0391 33.4662 60.5625 35.2944 60.5625C37.1147 60.5625 38.5912 62.0391 38.5912 63.8594C38.5912 65.6875 37.1147 67.1719 35.2944 67.1719ZM41.2988 68H42.3144V56H41.2988V68ZM50.1937 59.7266L47.5062 66.6797L44.7172 59.7266H43.5844L46.9203 67.8281L45.2953 71.8906H46.3812L51.3344 59.7266H50.1937Z" fill="#305367"/>
<path d="M61.5803 68H64.01L59.4319 56H56.7287L52.1584 68H54.5881L55.4787 65.5391H60.6897L61.5803 68ZM56.1897 63.5703L58.0881 58.3281L59.9787 63.5703H56.1897ZM65.7716 68H67.9981V56H65.7716V68ZM70.5059 68H72.7325V56H70.5059V68ZM80.3731 59.7266L78.4669 65.3984L76.5528 59.7266H74.1075L77.2872 67.5078L75.5528 71.8906H77.8419L82.7091 59.7266H80.3731Z" fill="#357D7D"/>
<defs>
<clipPath id="clip0">
<rect width="83" height="45" fill="white"/>
</clipPath>
</defs>
</svg>
