<svg width="100%" height="100%" viewBox="0 0 128 32" fill="none" xmlns="http://www.w3.org/2000/svg">
    <path d="M2.72969 26.9671C1.61379 26.9671 0.717407 26.052 0.717407 24.9315C0.717407 23.811 1.61379 22.8959 2.72969 22.8959C3.84559 22.8959 4.74197 23.811 4.74197 24.9315C4.72368 26.052 3.8273 26.9671 2.72969 26.9671ZM2.72969 23.7923C2.126 23.7923 1.61379 24.2965 1.61379 24.9315C1.61379 25.5478 2.10771 26.0707 2.72969 26.0707C3.33337 26.0707 3.84559 25.5664 3.84559 24.9315C3.8273 24.2965 3.33337 23.7923 2.72969 23.7923Z" fill="white"/>
    <path d="M6.2054 12.0829C5.0895 12.0829 4.19312 11.1678 4.19312 10.0473C4.19312 8.92681 5.0895 8.01172 6.2054 8.01172C7.3213 8.01172 8.21768 8.92681 8.21768 10.0473C8.21768 11.1492 7.3213 12.0829 6.2054 12.0829ZM6.2054 8.90813C5.60171 8.90813 5.0895 9.41236 5.0895 10.0473C5.0895 10.6636 5.58342 11.1865 6.2054 11.1865C6.80908 11.1865 7.3213 10.6823 7.3213 10.0473C7.3213 9.41236 6.82737 8.90813 6.2054 8.90813Z" fill="white"/>
    <path d="M18.078 25.3797C16.9621 25.3797 16.0657 24.4646 16.0657 23.3441C16.0657 22.2236 16.9621 21.3085 18.078 21.3085C19.1939 21.3085 20.0902 22.2236 20.0902 23.3441C20.0902 24.4646 19.1756 25.3797 18.078 25.3797ZM18.078 22.2049C17.4743 22.2049 16.9621 22.7091 16.9621 23.3441C16.9621 23.9604 17.456 24.4833 18.078 24.4833C18.6816 24.4833 19.1939 23.979 19.1939 23.3441C19.1939 22.7091 18.6816 22.2049 18.078 22.2049Z" fill="white"/>
    <path d="M26.5843 31.7666C25.4684 31.7666 24.572 30.8516 24.572 29.731C24.572 28.6105 25.4684 27.6954 26.5843 27.6954C27.7002 27.6954 28.5966 28.6105 28.5966 29.731C28.5966 30.8516 27.6819 31.7666 26.5843 31.7666ZM26.5843 28.5918C25.9806 28.5918 25.4684 29.0961 25.4684 29.731C25.4684 30.366 25.9623 30.8702 26.5843 30.8702C27.188 30.8702 27.7002 30.366 27.7002 29.731C27.7002 29.0961 27.188 28.5918 26.5843 28.5918Z" fill="white"/>
    <path d="M34.5604 26.9671C33.4445 26.9671 32.5481 26.052 32.5481 24.9315C32.5481 23.811 33.4445 22.8959 34.5604 22.8959C35.6763 22.8959 36.5727 23.811 36.5727 24.9315C36.5727 26.052 35.658 26.9671 34.5604 26.9671ZM34.5604 23.7923C33.9567 23.7923 33.4445 24.2965 33.4445 24.9315C33.4445 25.5478 33.9384 26.0707 34.5604 26.0707C35.1824 26.0707 35.6763 25.5664 35.6763 24.9315C35.6763 24.2965 35.1641 23.7923 34.5604 23.7923Z" fill="white"/>
    <path d="M45.134 23.3067C44.0181 23.3067 43.1217 22.3916 43.1217 21.2711C43.1217 20.1506 44.0181 19.2355 45.134 19.2355C46.2499 19.2355 47.1463 20.1506 47.1463 21.2711C47.1463 22.3916 46.2499 23.3067 45.134 23.3067ZM45.134 20.1319C44.5303 20.1319 44.0181 20.6361 44.0181 21.2711C44.0181 21.8874 44.512 22.4103 45.134 22.4103C45.756 22.4103 46.2499 21.906 46.2499 21.2711C46.2499 20.6361 45.756 20.1319 45.134 20.1319Z" fill="white"/>
    <path d="M54.7563 9.41227C53.6404 9.41227 52.744 8.49718 52.744 7.37667C52.744 6.25615 53.6404 5.34106 54.7563 5.34106C55.8722 5.34106 56.7686 6.25615 56.7686 7.37667C56.7503 8.49718 55.8539 9.41227 54.7563 9.41227ZM54.7563 6.23748C54.1526 6.23748 53.6404 6.74171 53.6404 7.37667C53.6404 7.99295 54.1343 8.51586 54.7563 8.51586C55.36 8.51586 55.8722 8.01163 55.8722 7.37667C55.8539 6.74171 55.36 6.23748 54.7563 6.23748Z" fill="white"/>
    <path d="M36.1153 10.4955C34.9994 10.4955 34.103 9.58044 34.103 8.45992C34.103 7.3394 34.9994 6.42432 36.1153 6.42432C37.2312 6.42432 38.1276 7.3394 38.1276 8.45992C38.1276 9.56176 37.2312 10.4955 36.1153 10.4955ZM36.1153 7.32073C35.5116 7.32073 34.9994 7.82496 34.9994 8.45992C34.9994 9.0762 35.4933 9.59911 36.1153 9.59911C36.7373 9.59911 37.2312 9.09488 37.2312 8.45992C37.2312 7.82496 36.7373 7.32073 36.1153 7.32073Z" fill="white"/>
    <path d="M46.2315 10.8876C45.1156 10.8876 44.2192 9.97252 44.2192 8.85201C44.2192 7.73149 45.1156 6.81641 46.2315 6.81641C47.3474 6.81641 48.2438 7.73149 48.2438 8.85201C48.2438 9.97252 47.3474 10.8876 46.2315 10.8876ZM46.2315 7.71282C45.6278 7.71282 45.1156 8.21705 45.1156 8.85201C45.1156 9.46829 45.6095 9.9912 46.2315 9.9912C46.8535 9.9912 47.3474 9.48697 47.3474 8.85201C47.3474 8.21705 46.8535 7.71282 46.2315 7.71282Z" fill="white"/>
    <path d="M25.7246 4.08988C24.6087 4.08988 23.7123 3.17479 23.7123 2.05428C23.7123 0.933764 24.6087 0.0186768 25.7246 0.0186768C26.8405 0.0186768 27.7368 0.933764 27.7368 2.05428C27.7368 3.17479 26.8405 4.08988 25.7246 4.08988ZM25.7246 0.915089C25.1209 0.915089 24.6087 1.41932 24.6087 2.05428C24.6087 2.67056 25.1026 3.19347 25.7246 3.19347C26.3465 3.19347 26.8405 2.68924 26.8405 2.05428C26.8405 1.41932 26.3465 0.915089 25.7246 0.915089Z" fill="white"/>
    <path d="M16.8706 7.71293C15.7547 7.71293 14.8583 6.79784 14.8583 5.67733C14.8583 4.55681 15.7547 3.64172 16.8706 3.64172C17.9865 3.64172 18.8828 4.55681 18.8828 5.67733C18.8828 6.79784 17.9682 7.71293 16.8706 7.71293ZM16.8706 4.53814C16.2669 4.53814 15.7547 5.04237 15.7547 5.67733C15.7547 6.31229 16.2486 6.81652 16.8706 6.81652C17.4742 6.81652 17.9865 6.31229 17.9865 5.67733C17.9865 5.04237 17.4742 4.53814 16.8706 4.53814Z" fill="white"/>
    <path d="M3.58953 23.4935L2.72974 23.3068L5.21765 11.5227L6.09574 11.7095L3.58953 23.4935Z" fill="white"/>
    <path d="M16.4752 23.34L4.25061 24.4706L4.33148 25.3819L16.5561 24.2514L16.4752 23.34Z" fill="white"/>
    <path d="M24.9014 29.8244L18.6267 25.0622L19.1572 24.3339L25.4319 29.0961L24.9014 29.8244Z" fill="white"/>
    <path d="M43.3595 21.6633L17.8584 7.05926L18.2974 6.2749L43.7985 20.8603L43.3595 21.6633Z" fill="white"/>
    <path d="M17.5244 7.19554L16.6301 7.25891L17.6334 21.7715L18.5277 21.7081L17.5244 7.19554Z" fill="white"/>
    <path d="M16.523 22.7838L6.90063 11.5227L7.57749 10.925L17.1999 22.1862L16.523 22.7838Z" fill="white"/>
    <path d="M4.39434 24.3339L3.6626 23.7923L15.7546 6.77917L16.4863 7.32076L4.39434 24.3339Z" fill="white"/>
    <path d="M33.042 24.4647L7.50427 10.8317L7.92502 10.0287L33.4627 23.6616L33.042 24.4647Z" fill="white"/>
    <path d="M28.3588 29.675L27.9015 28.8719L33.2798 25.6971L33.7371 26.4815L28.3588 29.675Z" fill="white"/>
    <path d="M19.6502 23.2666L19.5458 24.1754L32.9211 25.75L33.0255 24.8412L19.6502 23.2666Z" fill="white"/>
    <path d="M18.495 5.20307L18.3457 6.10535L34.4711 8.88518L34.6203 7.9829L18.495 5.20307Z" fill="white"/>
    <path d="M33.5176 23.5682L25.8344 3.58567L26.6758 3.24951L34.3591 23.232L33.5176 23.5682Z" fill="white"/>
    <path d="M35.5665 23.8483L34.853 23.3068L44.6949 9.72986L45.4266 10.2714L35.5665 23.8483Z" fill="white"/>
    <path d="M43.9815 20.3187L36.4263 10.1594L37.1397 9.59912L44.6949 19.7585L43.9815 20.3187Z" fill="white"/>
    <path d="M36.2433 24.8006L36.0055 23.9229L43.7985 21.7379L44.0363 22.6156L36.2433 24.8006Z" fill="white"/>
    <path d="M45.7908 10.3752L44.8999 19.6311L45.7921 19.7191L46.683 10.4633L45.7908 10.3752Z" fill="white"/>
    <path d="M37.7014 7.99094L37.6521 8.90466L44.648 9.2978L44.6973 8.38408L37.7014 7.99094Z" fill="white"/>
    <path d="M34.8531 7.7129L27.0417 2.57721L27.5357 1.81152L35.3287 6.94722L34.8531 7.7129Z" fill="white"/>
    <path d="M18.2425 5.41574L17.8949 4.57536L24.0049 2.03552L24.3342 2.87591L18.2425 5.41574Z" fill="white"/>
    <path d="M7.669 9.58037L7.33972 8.72131L15.151 5.69592L15.462 6.55498L7.669 9.58037Z" fill="white"/>
    <path d="M47.8963 9.28157L47.6951 8.38516L53.1282 7.18994L53.3112 8.08635L47.8963 9.28157Z" fill="white"/>
    <path d="M46.7621 20.5614L46.0304 20.0572L53.8051 8.5719L54.5369 9.09481L46.7621 20.5614Z" fill="white"/>
    <path d="M19.5414 22.485L18.9926 21.7754L34.8164 9.28162L35.3652 9.99128L19.5414 22.485Z" fill="white"/>
    <path d="M61.6346 11.1304L61.9639 10.5515C62.0371 10.4207 62.2017 10.4207 62.2749 10.4768C62.3298 10.5141 63.0798 11.0557 63.6835 11.0557C64.1591 11.0557 64.525 10.7382 64.525 10.3274C64.525 9.8418 64.1225 9.50564 63.3359 9.18816C62.4578 8.83333 61.598 8.2544 61.598 7.13389C61.598 6.2935 62.22 5.30371 63.6835 5.30371C64.6348 5.30371 65.3482 5.78927 65.5494 5.93867C65.6409 5.9947 65.6775 6.16277 65.6043 6.25615L65.2567 6.79773C65.1836 6.90978 65.0372 6.98448 64.9275 6.90978C64.8543 6.85376 64.1408 6.38688 63.6286 6.38688C63.0981 6.38688 62.8054 6.74171 62.8054 7.05918C62.8054 7.50739 63.153 7.80619 63.903 8.12367C64.7994 8.49718 65.8421 9.03876 65.8421 10.2713C65.8421 11.2424 65.0189 12.1575 63.7018 12.1575C62.531 12.1575 61.8358 11.5973 61.6529 11.4105C61.598 11.3358 61.5431 11.2798 61.6346 11.1304Z" fill="white"/>
    <path d="M67.7263 5.47179C67.7446 5.39709 67.7995 5.32239 67.891 5.32239H68.0373C68.1105 5.32239 68.1654 5.35974 68.202 5.41576L70.2508 9.89783C70.2691 9.89783 70.2691 9.89783 70.2874 9.89783L72.3363 5.41576C72.3729 5.35974 72.4095 5.32239 72.5009 5.32239H72.6473C72.7571 5.32239 72.8119 5.39709 72.8119 5.47179L73.9095 11.8401C73.9461 11.9708 73.8547 12.0642 73.7449 12.0642H72.9034C72.8119 12.0642 72.7388 11.9895 72.7205 11.9148L72.1717 8.31043C72.1534 8.31043 72.1351 8.31043 72.1351 8.31043L70.507 12.0455C70.4887 12.1015 70.4338 12.1575 70.3423 12.1575H70.1777C70.0862 12.1575 70.0496 12.1015 70.013 12.0455L68.3666 8.31043C68.3666 8.31043 68.3483 8.31043 68.33 8.31043L67.7995 11.9148C67.7812 11.9895 67.7081 12.0642 67.6349 12.0642H66.7934C66.6653 12.0642 66.5922 11.9708 66.6104 11.8401L67.7263 5.47179Z" fill="white"/>
    <path d="M74.312 11.8214L77.2024 5.43444C77.239 5.37841 77.2756 5.32239 77.367 5.32239H77.4585C77.55 5.32239 77.5865 5.37841 77.6231 5.43444L80.4769 11.8214C80.5318 11.9521 80.4586 12.0642 80.3123 12.0642H79.5074C79.361 12.0642 79.3061 12.0081 79.233 11.8774L78.7756 10.8503H75.995L75.5377 11.8774C75.5011 11.9708 75.4096 12.0642 75.2633 12.0642H74.4584C74.3303 12.0642 74.2571 11.9521 74.312 11.8214ZM78.3366 9.80445L77.4036 7.71282H77.367L76.4524 9.80445H78.3366Z" fill="white"/>
    <path d="M81.3184 5.60252C81.3184 5.50915 81.3915 5.41577 81.5013 5.41577H84.1538C85.2698 5.41577 86.1844 6.33086 86.1844 7.45137C86.1844 8.32911 85.6173 9.03877 84.8124 9.37493L86.093 11.784C86.1661 11.9148 86.093 12.0642 85.9283 12.0642H84.9588C84.8673 12.0642 84.8307 12.0081 84.8124 11.9708L83.5685 9.44963H82.544V11.8774C82.544 11.9708 82.4526 12.0642 82.3611 12.0642H81.5013C81.3915 12.0642 81.3184 11.9708 81.3184 11.8774V5.60252ZM84.0624 8.45984C84.5563 8.45984 84.9771 8.03031 84.9771 7.48872C84.9771 6.98449 84.5563 6.57364 84.0624 6.57364H82.544V8.45984H84.0624Z" fill="white"/>
    <path d="M88.3979 6.57364H86.971C86.8613 6.57364 86.7881 6.48026 86.7881 6.38688V5.60252C86.7881 5.50915 86.8613 5.41577 86.971 5.41577H91.0322C91.1419 5.41577 91.2151 5.50915 91.2151 5.60252V6.38688C91.2151 6.48026 91.1419 6.57364 91.0322 6.57364H89.6053V11.8961C89.6053 11.9895 89.5138 12.0828 89.4224 12.0828H88.5626C88.4711 12.0828 88.3796 11.9895 88.3796 11.8961V6.57364H88.3979Z" fill="white"/>
    <path d="M94.2336 5.50914C94.2336 5.41577 94.3251 5.34106 94.4166 5.34106H94.6544L98.496 9.52432H98.5143V5.60252C98.5143 5.50914 98.5875 5.41577 98.6972 5.41577H99.557C99.6485 5.41577 99.7399 5.50914 99.7399 5.60252V11.9895C99.7399 12.0828 99.6485 12.1575 99.557 12.1575H99.3192L95.441 7.8062H95.4227V11.8774C95.4227 11.9708 95.3495 12.0642 95.2398 12.0642H94.3983C94.3068 12.0642 94.2153 11.9708 94.2153 11.8774V5.50914H94.2336Z" fill="white"/>
    <path d="M100.563 11.8214L103.453 5.43444C103.49 5.37841 103.527 5.32239 103.618 5.32239H103.71C103.801 5.32239 103.838 5.37841 103.874 5.43444L106.728 11.8214C106.783 11.9521 106.71 12.0642 106.563 12.0642H105.758C105.612 12.0642 105.557 12.0081 105.484 11.8774L105.027 10.8503H102.246L101.789 11.8774C101.752 11.9708 101.661 12.0642 101.514 12.0642H100.709C100.581 12.0642 100.508 11.9521 100.563 11.8214ZM104.569 9.80445L103.636 7.71282H103.6L102.685 9.80445H104.569Z" fill="white"/>
    <path d="M108.1 6.57364H106.673C106.563 6.57364 106.49 6.48026 106.49 6.38688V5.60252C106.49 5.50915 106.563 5.41577 106.673 5.41577H110.734C110.844 5.41577 110.917 5.50915 110.917 5.60252V6.38688C110.917 6.48026 110.844 6.57364 110.734 6.57364H109.307V11.8961C109.307 11.9895 109.216 12.0828 109.124 12.0828H108.283C108.192 12.0828 108.1 11.9895 108.1 11.8961V6.57364Z" fill="white"/>
    <path d="M111.887 5.60252C111.887 5.50915 111.978 5.41577 112.07 5.41577H112.93C113.021 5.41577 113.113 5.50915 113.113 5.60252V11.8774C113.113 11.9708 113.021 12.0642 112.93 12.0642H112.07C111.978 12.0642 111.887 11.9708 111.887 11.8774V5.60252Z" fill="white"/>
    <path d="M117.668 5.32239C119.533 5.32239 121.015 6.85376 121.015 8.73996C121.015 10.6262 119.533 12.1389 117.668 12.1389C115.802 12.1389 114.32 10.6448 114.32 8.75864C114.32 6.87243 115.802 5.32239 117.668 5.32239ZM117.668 10.925C118.838 10.925 119.808 9.95385 119.808 8.75864C119.808 7.56342 118.838 6.57363 117.668 6.57363C116.497 6.57363 115.545 7.56342 115.545 8.75864C115.545 9.95385 116.497 10.925 117.668 10.925Z" fill="white"/>
    <path d="M122.223 5.50914C122.223 5.41577 122.314 5.34106 122.406 5.34106H122.643L126.503 9.52432H126.522V5.60252C126.522 5.50914 126.595 5.41577 126.705 5.41577H127.564C127.656 5.41577 127.747 5.50914 127.747 5.60252V11.9895C127.747 12.0828 127.656 12.1575 127.564 12.1575H127.345L123.467 7.8062H123.448V11.8774C123.448 11.9708 123.375 12.0642 123.265 12.0642H122.424C122.332 12.0642 122.241 11.9708 122.241 11.8774V5.50914H122.223Z" fill="white"/>
    <path d="M61.598 19.2168C61.598 19.1608 61.6346 19.1047 61.6895 19.1047H62.7871C63.6835 19.1047 64.4152 20.0198 64.4152 21.1403C64.4152 22.2608 63.6835 23.1759 62.7871 23.1759H61.6895C61.6346 23.1759 61.598 23.1199 61.598 23.0639V19.2168ZM62.7322 22.4663C63.3359 22.4663 63.775 21.8873 63.775 21.1403C63.775 20.3747 63.3359 19.8144 62.7322 19.8144H62.2017V22.4663H62.7322Z" fill="white"/>
    <path d="M64.9823 19.2168C64.9823 19.1608 65.0189 19.1047 65.0738 19.1047H65.5128C65.5677 19.1047 65.6043 19.1608 65.6043 19.2168V23.0639C65.6043 23.1199 65.5677 23.1759 65.5128 23.1759H65.0738C65.0189 23.1759 64.9823 23.1199 64.9823 23.0639V19.2168Z" fill="white"/>
    <path d="M67.8362 19.0487C68.2569 19.0487 68.6594 19.2541 68.9704 19.5903C69.007 19.6276 69.007 19.7023 68.9704 19.7584L68.6777 20.1319C68.6411 20.1692 68.6045 20.1692 68.5496 20.1319C68.3484 19.9078 68.1106 19.7957 67.8545 19.7957C67.2691 19.7957 66.8117 20.412 66.8117 21.1403C66.8117 21.8687 67.2691 22.4663 67.8545 22.4663C68.1106 22.4663 68.3118 22.3729 68.4033 22.3169V21.8313H68.0374C67.9825 21.8313 67.9459 21.794 67.9459 21.7193V21.2524C67.9459 21.1964 67.9825 21.1403 68.0374 21.1403H68.9338C68.9887 21.1403 69.0253 21.1964 69.0253 21.2524V22.7464C69.0253 22.7838 69.007 22.8211 68.9887 22.8398C68.9887 22.8398 68.513 23.2133 67.8362 23.2133C66.9032 23.2133 66.1715 22.2982 66.1715 21.1217C66.1532 19.9825 66.9032 19.0487 67.8362 19.0487Z" fill="white"/>
    <path d="M69.6654 19.2168C69.6654 19.1608 69.702 19.1047 69.7569 19.1047H70.1959C70.2508 19.1047 70.2874 19.1608 70.2874 19.2168V23.0639C70.2874 23.1199 70.2508 23.1759 70.1959 23.1759H69.7569C69.702 23.1759 69.6654 23.1199 69.6654 23.0639V19.2168Z" fill="white"/>
    <path d="M71.513 19.7957H70.7996C70.7447 19.7957 70.7081 19.7397 70.7081 19.6837V19.1981C70.7081 19.1421 70.7447 19.0861 70.7996 19.0861H72.8302C72.8851 19.0861 72.9216 19.1421 72.9216 19.1981V19.6837C72.9216 19.7397 72.8851 19.7957 72.8302 19.7957H72.1167V23.0639C72.1167 23.1199 72.0801 23.1759 72.0253 23.1759H71.5862C71.5313 23.1759 71.4947 23.1199 71.4947 23.0639V19.7957H71.513Z" fill="white"/>
    <path d="M72.757 23.0265L74.2022 19.1047C74.2205 19.0674 74.2388 19.0487 74.2754 19.0487H74.3303C74.3851 19.0487 74.4034 19.0861 74.4034 19.1047L75.8303 23.0265C75.8669 23.1012 75.812 23.1759 75.7572 23.1759H75.3547C75.2815 23.1759 75.2449 23.1386 75.2266 23.0639L75.0071 22.4289H73.6168L73.3973 23.0639C73.379 23.1199 73.3424 23.1759 73.2692 23.1759H72.8668C72.7753 23.1759 72.7387 23.1012 72.757 23.0265ZM74.7693 21.794L74.312 20.5054H74.2937L73.8363 21.794H74.7693Z" fill="white"/>
    <path d="M76.2328 19.2168C76.2328 19.1608 76.2694 19.1047 76.3243 19.1047H76.745C76.7999 19.1047 76.8365 19.1608 76.8365 19.2168V22.485H78.0255C78.0804 22.485 78.117 22.541 78.117 22.597V23.0826C78.117 23.1386 78.0804 23.1946 78.0255 23.1946H76.3243C76.2694 23.1946 76.2328 23.1386 76.2328 23.0826V19.2168Z" fill="white"/>
    <path d="M80.9526 19.0487C81.3733 19.0487 81.7758 19.2541 82.0867 19.5903C82.1233 19.6276 82.1233 19.7023 82.0867 19.7584L81.7941 20.1319C81.7575 20.1692 81.7209 20.1692 81.666 20.1319C81.4648 19.9078 81.227 19.7957 80.9708 19.7957C80.3855 19.7957 79.9281 20.412 79.9281 21.1403C79.9281 21.8687 80.3855 22.4663 80.9708 22.4663C81.227 22.4663 81.4282 22.3729 81.5197 22.3169V21.8313H81.1538C81.0989 21.8313 81.0623 21.794 81.0623 21.7193V21.2524C81.0623 21.1964 81.0989 21.1403 81.1538 21.1403H82.0502C82.105 21.1403 82.1416 21.1964 82.1416 21.2524V22.7464C82.1416 22.7838 82.1233 22.8211 82.105 22.8398C82.105 22.8398 81.6294 23.2133 80.9526 23.2133C80.0196 23.2133 79.2878 22.2982 79.2878 21.1217C79.2878 19.9825 80.0196 19.0487 80.9526 19.0487Z" fill="white"/>
    <path d="M84.227 19.0487C85.16 19.0487 85.91 19.9825 85.91 21.159C85.91 22.3169 85.16 23.2506 84.227 23.2506C83.2941 23.2506 82.5623 22.3169 82.5623 21.159C82.544 19.9825 83.2941 19.0487 84.227 19.0487ZM84.227 22.485C84.8124 22.485 85.3064 21.8873 85.3064 21.159C85.3064 20.4307 84.8307 19.8144 84.227 19.8144C83.6417 19.8144 83.166 20.4307 83.166 21.159C83.166 21.8873 83.6417 22.485 84.227 22.485Z" fill="white"/>
    <path d="M86.0198 19.2541C85.9832 19.1794 86.0381 19.1047 86.093 19.1047H86.5686C86.6052 19.1047 86.6418 19.1421 86.6418 19.1608L87.5381 21.6632H87.5747L88.4711 19.1608C88.4894 19.1234 88.5077 19.1047 88.5443 19.1047H89.0199C89.0931 19.1047 89.1297 19.1794 89.0931 19.2541L87.6479 23.1759C87.6296 23.2133 87.6113 23.232 87.5747 23.232H87.5198C87.4833 23.232 87.4467 23.1946 87.4467 23.1759L86.0198 19.2541Z" fill="white"/>
    <path d="M89.4773 19.2168C89.4773 19.1608 89.5139 19.1047 89.5688 19.1047H91.4713C91.5262 19.1047 91.5628 19.1608 91.5628 19.2168V19.7023C91.5628 19.7584 91.5262 19.8144 91.4713 19.8144H90.0993V20.7668H91.2518C91.3067 20.7668 91.3432 20.8229 91.3432 20.8789V21.3644C91.3432 21.4205 91.3067 21.4765 91.2518 21.4765H90.0993V22.5036H91.4713C91.5262 22.5036 91.5628 22.5597 91.5628 22.6157V23.1012C91.5628 23.1573 91.5262 23.2133 91.4713 23.2133H89.5688C89.5139 23.2133 89.4773 23.1573 89.4773 23.1012V19.2168Z" fill="white"/>
    <path d="M92.1664 19.2168C92.1664 19.1608 92.203 19.1047 92.2578 19.1047H93.5933C94.1604 19.1047 94.5994 19.665 94.5994 20.356C94.5994 20.8976 94.3067 21.3271 93.9043 21.5325L94.5445 23.0079C94.5811 23.0826 94.5445 23.1759 94.4713 23.1759H93.9774C93.9408 23.1759 93.9043 23.1386 93.9043 23.1199L93.2823 21.5699H92.7701V23.0452C92.7701 23.1012 92.7335 23.1573 92.6786 23.1573H92.2578C92.203 23.1573 92.1664 23.1012 92.1664 23.0452V19.2168ZM93.5384 20.9536C93.7762 20.9536 93.9957 20.6921 93.9957 20.356C93.9957 20.0385 93.7762 19.7957 93.5384 19.7957H92.7884V20.9536H93.5384Z" fill="white"/>
    <path d="M95.2213 19.1421C95.2213 19.0861 95.2579 19.03 95.3128 19.03H95.4225L97.3617 21.6072V19.1981C97.3617 19.1421 97.3982 19.0861 97.4531 19.0861H97.8739C97.9288 19.0861 97.9653 19.1421 97.9653 19.1981V23.1199C97.9653 23.1759 97.9288 23.232 97.8739 23.232H97.7641L95.825 20.5614V23.0639C95.825 23.1199 95.7884 23.1759 95.7335 23.1759H95.3128C95.2579 23.1759 95.2213 23.1199 95.2213 23.0639V19.1421Z" fill="white"/>
    <path d="M99.118 19.1421C99.118 19.1047 99.1546 19.0487 99.2095 19.0487H99.2826C99.3192 19.0487 99.3558 19.0674 99.3558 19.1047L100.38 21.85C100.399 21.85 100.399 21.85 100.399 21.85L101.423 19.1047C101.441 19.0674 101.46 19.0487 101.496 19.0487H101.569C101.624 19.0487 101.642 19.0861 101.661 19.1421L102.21 23.0452C102.228 23.1199 102.191 23.1759 102.118 23.1759H101.697C101.661 23.1759 101.624 23.1386 101.606 23.0826L101.331 20.8789H101.313L100.49 23.1759C100.472 23.2133 100.453 23.232 100.417 23.232H100.325C100.289 23.232 100.252 23.1946 100.252 23.1759L99.429 20.8789H99.4107L99.1363 23.0826C99.1363 23.1199 99.0997 23.1759 99.0448 23.1759H98.6241C98.5692 23.1759 98.5326 23.1199 98.5326 23.0452L99.118 19.1421Z" fill="white"/>
    <path d="M102.795 19.2168C102.795 19.1608 102.832 19.1047 102.886 19.1047H104.789C104.844 19.1047 104.88 19.1608 104.88 19.2168V19.7023C104.88 19.7584 104.844 19.8144 104.789 19.8144H103.417V20.7668H104.569C104.624 20.7668 104.661 20.8229 104.661 20.8789V21.3644C104.661 21.4205 104.624 21.4765 104.569 21.4765H103.417V22.5036H104.789C104.844 22.5036 104.88 22.5597 104.88 22.6157V23.1012C104.88 23.1573 104.844 23.2133 104.789 23.2133H102.886C102.832 23.2133 102.795 23.1573 102.795 23.1012V19.2168Z" fill="white"/>
    <path d="M105.484 19.1421C105.484 19.0861 105.521 19.03 105.575 19.03H105.685L107.624 21.6072V19.1981C107.624 19.1421 107.661 19.0861 107.716 19.0861H108.137C108.191 19.0861 108.228 19.1421 108.228 19.1981V23.1199C108.228 23.1759 108.191 23.232 108.137 23.232H108.027L106.088 20.5614V23.0639C106.088 23.1199 106.051 23.1759 105.996 23.1759H105.575C105.521 23.1759 105.484 23.1199 105.484 23.0639V19.1421Z" fill="white"/>
    <path d="M109.49 19.7957H108.777C108.722 19.7957 108.685 19.7397 108.685 19.6837V19.1981C108.685 19.1421 108.722 19.0861 108.777 19.0861H110.807C110.862 19.0861 110.899 19.1421 110.899 19.1981V19.6837C110.899 19.7397 110.862 19.7957 110.807 19.7957H110.094V23.0639C110.094 23.1199 110.057 23.1759 110.003 23.1759H109.564C109.509 23.1759 109.472 23.1199 109.472 23.0639V19.7957H109.49Z" fill="white"/>
    <path d="M113.753 19.0487C114.686 19.0487 115.436 19.9825 115.436 21.159C115.436 22.3169 114.686 23.2506 113.753 23.2506C112.82 23.2506 112.088 22.3169 112.088 21.159C112.088 19.9825 112.82 19.0487 113.753 19.0487ZM113.753 22.485C114.338 22.485 114.832 21.8873 114.832 21.159C114.832 20.4307 114.356 19.8144 113.753 19.8144C113.149 19.8144 112.692 20.4307 112.692 21.159C112.692 21.8873 113.167 22.485 113.753 22.485Z" fill="white"/>
    <path d="M115.984 19.2168C115.984 19.1608 116.021 19.1047 116.076 19.1047H117.979C118.033 19.1047 118.07 19.1608 118.07 19.2168V19.7023C118.07 19.7584 118.033 19.8144 117.979 19.8144H116.606V20.9162H117.759C117.814 20.9162 117.85 20.9723 117.85 21.0283V21.5138C117.85 21.5699 117.814 21.6259 117.759 21.6259H116.606V23.1012C116.606 23.1573 116.57 23.2133 116.515 23.2133H116.094C116.039 23.2133 116.003 23.1573 116.003 23.1012V19.2168H115.984Z" fill="white"/>
    <path d="M118.582 19.2168C118.582 19.1608 118.619 19.1047 118.674 19.1047H120.576C120.631 19.1047 120.668 19.1608 120.668 19.2168V19.7023C120.668 19.7584 120.631 19.8144 120.576 19.8144H119.204V20.9162H120.357C120.411 20.9162 120.448 20.9723 120.448 21.0283V21.5138C120.448 21.5699 120.411 21.6259 120.357 21.6259H119.204V23.1012C119.204 23.1573 119.168 23.2133 119.113 23.2133H118.692C118.637 23.2133 118.6 23.1573 118.6 23.1012V19.2168H118.582Z" fill="white"/>
    <path d="M121.161 19.2168C121.161 19.1608 121.198 19.1047 121.253 19.1047H121.692C121.747 19.1047 121.783 19.1608 121.783 19.2168V23.0639C121.783 23.1199 121.747 23.1759 121.692 23.1759H121.253C121.198 23.1759 121.161 23.1199 121.161 23.0639V19.2168Z" fill="white"/>
    <path d="M124.015 19.0487C124.491 19.0487 124.82 19.2355 125.15 19.5903C125.186 19.6276 125.186 19.7023 125.15 19.7584L124.857 20.1319C124.82 20.1692 124.784 20.1692 124.747 20.1319C124.546 19.9078 124.29 19.7957 124.034 19.7957C123.43 19.7957 122.991 20.412 122.991 21.159C122.991 21.8873 123.43 22.5036 124.034 22.5036C124.308 22.5036 124.546 22.3729 124.747 22.1675C124.784 22.1301 124.839 22.1301 124.857 22.1675L125.15 22.541C125.186 22.5783 125.186 22.653 125.15 22.6904C124.839 23.0826 124.436 23.2506 124.015 23.2506C123.082 23.2506 122.332 22.3169 122.332 21.159C122.332 19.9825 123.082 19.0487 124.015 19.0487Z" fill="white"/>
    <path d="M125.698 19.2168C125.698 19.1608 125.735 19.1047 125.79 19.1047H127.692C127.747 19.1047 127.784 19.1608 127.784 19.2168V19.7023C127.784 19.7584 127.747 19.8144 127.692 19.8144H126.32V20.7668H127.473C127.528 20.7668 127.564 20.8229 127.564 20.8789V21.3644C127.564 21.4205 127.528 21.4765 127.473 21.4765H126.32V22.5036H127.692C127.747 22.5036 127.784 22.5597 127.784 22.6157V23.1012C127.784 23.1573 127.747 23.2133 127.692 23.2133H125.79C125.735 23.2133 125.698 23.1573 125.698 23.1012V19.2168Z" fill="white"/>
    <path d="M93.4835 15.3697L93.3372 15.2016C93.0811 14.9589 92.8798 14.6974 92.8981 14.3426C92.8981 13.8944 93.2457 13.3901 94.014 13.3901C94.6909 13.3901 95.0934 13.801 95.0934 14.2866C95.0934 14.8095 94.5263 15.2016 94.1604 15.4071L95.2031 16.3595C95.3678 16.042 95.4592 15.6872 95.4592 15.3324C95.4592 15.2016 95.5141 15.2016 95.6056 15.2016H95.7519C95.88 15.2016 95.88 15.295 95.88 15.3324C95.88 15.7806 95.7336 16.2661 95.5141 16.6396L96.1178 17.1999C96.191 17.2746 96.2458 17.3306 96.1178 17.4613L96.0446 17.5174C95.9714 17.5734 95.88 17.5921 95.7702 17.4987L95.2397 16.9945C94.8921 17.3493 94.4348 17.5734 93.8494 17.5734C93.0445 17.5734 92.6237 17.0692 92.6237 16.5089C92.6054 15.9113 93.1542 15.5565 93.4835 15.3697ZM93.8494 17.2372C94.2884 17.2372 94.6543 17.0505 94.9287 16.7517L93.7579 15.6312C93.4652 15.7992 93.0445 16.0981 93.0445 16.5463C93.0445 16.9571 93.4104 17.2372 93.8494 17.2372ZM94.636 14.3239C94.636 14.0438 94.3982 13.7636 93.9775 13.7636C93.5567 13.7636 93.3189 14.0438 93.3189 14.3799C93.3006 14.6227 93.4835 14.8281 93.7213 15.0522L93.8677 15.183C94.1421 14.9962 94.636 14.7348 94.636 14.3239Z" fill="white"/>
    <path d="M61.1774 15.5565H87.5748" stroke="white" stroke-width="0.5" stroke-miterlimit="10"/>
    <path d="M101.167 15.5565H127.564" stroke="white" stroke-width="0.5" stroke-miterlimit="10"/>
</svg>
